HIERARCHY
ROOT hip
{
  OFFSET 0 0 0
  CHANNELS 6 Xposition Yposition Zposition Zrotation Yrotation Xrotation
  JOINT abdomen
  {
    OFFSET 0 20.6881 -0.73152
    CHANNELS 3 Zrotation Xrotation Yrotation
    JOINT chest
    {
      OFFSET 0 11.7043 -0.48768
      CHANNELS 3 Zrotation Xrotation Yrotation
      JOINT neck
      {
        OFFSET 0 22.1894 -2.19456
        CHANNELS 3 Zrotation Xrotation Yrotation
        JOINT head
        {
          OFFSET -0.24384 7.07133 1.2192
          CHANNELS 3 Zrotation Xrotation Yrotation
          JOINT leftEye
          {
            OFFSET 4.14528 8.04674 8.04672
            CHANNELS 3 Zrotation Xrotation Yrotation
            End Site
            {
              OFFSET 1 0 0
            }
          }
          JOINT rightEye
          {
            OFFSET -3.6576 8.04674 8.04672
            CHANNELS 3 Zrotation Xrotation Yrotation
            End Site
            {
              OFFSET 1 0 0
            }
          }
        }
      }
      JOINT rCollar
      {
        OFFSET -2.68224 19.2634 -4.8768
        CHANNELS 3 Zrotation Xrotation Yrotation
        JOINT rShldr
        {
          OFFSET -8.77824 -1.95073 1.46304
          CHANNELS 3 Zrotation Xrotation Yrotation
          JOINT rForeArm
          {
            OFFSET -28.1742 -1.7115 0.48768
            CHANNELS 3 Zrotation Xrotation Yrotation
            JOINT rHand
            {
              OFFSET -22.5879 0.773209 7.07136
              CHANNELS 3 Zrotation Xrotation Yrotation
              JOINT rThumb1
              {
                OFFSET -1.2192 -0.487915 3.41376
                CHANNELS 3 Zrotation Xrotation Yrotation
                JOINT rThumb2
                {
                  OFFSET -3.37035 -0.52449 3.41376
                  CHANNELS 3 Zrotation Xrotation Yrotation
                  End Site
                  {
                    OFFSET -1.78271 -1.18214 1.43049
                  }
                }
              }
              JOINT rIndex1
              {
                OFFSET -7.75947 0.938293 5.60832
                CHANNELS 3 Zrotation Xrotation Yrotation
                JOINT rIndex2
                {
                  OFFSET -2.54057 -0.884171 1.56538
                  CHANNELS 3 Zrotation Xrotation Yrotation
                  End Site
                  {
                    OFFSET -1.62519 -0.234802 1.16502
                  }
                }
              }
              JOINT rMid1
              {
                OFFSET -8.24714 1.18213 3.41376
                CHANNELS 3 Zrotation Xrotation Yrotation
                JOINT rMid2
                {
                  OFFSET -3.10165 -0.590103 1.0647
                  CHANNELS 3 Zrotation Xrotation Yrotation
                  End Site
                  {
                    OFFSET -2.48547 -0.328903 0.83742
                  }
                }
              }
              JOINT rRing1
              {
                OFFSET -8.82822 0.546677 1.51678
                CHANNELS 3 Zrotation Xrotation Yrotation
                JOINT rRing2
                {
                  OFFSET -2.60934 -0.819778 -0.0198488
                  CHANNELS 3 Zrotation Xrotation Yrotation
                  End Site
                  {
                    OFFSET -2.33842 -0.294052 0.168128
                  }
                }
              }
              JOINT rPinky1
              {
                OFFSET -8.27202 -0.0477905 -0.4584
                CHANNELS 3 Zrotation Xrotation Yrotation
                JOINT rPinky2
                {
                  OFFSET -1.82734 -0.647385 -0.700984
                  CHANNELS 3 Zrotation Xrotation Yrotation
                  End Site
                  {
                    OFFSET -1.69225 -0.51767 -0.607171
                  }
                }
              }
            }
          }
        }
      }
      JOINT lCollar
      {
        OFFSET 2.68224 19.2634 -4.8768
        CHANNELS 3 Zrotation Xrotation Yrotation
        JOINT lShldr
        {
          OFFSET 8.77824 -1.95073 1.46304
          CHANNELS 3 Zrotation Xrotation Yrotation
          JOINT lForeArm
          {
            OFFSET 28.1742 -1.7115 0.48768
            CHANNELS 3 Zrotation Xrotation Yrotation
            JOINT lHand
            {
              OFFSET 22.5879 0.773209 7.07136
              CHANNELS 3 Zrotation Xrotation Yrotation
              JOINT lThumb1
              {
                OFFSET 1.2192 -0.487915 3.41376
                CHANNELS 3 Zrotation Xrotation Yrotation
                JOINT lThumb2
                {
                  OFFSET 3.37035 -0.52449 3.41376
                  CHANNELS 3 Zrotation Xrotation Yrotation
                  End Site
                  {
                    OFFSET 1.78271 -1.18214 1.43049
                  }
                }
              }
              JOINT lIndex1
              {
                OFFSET 7.75947 0.938293 5.60832
                CHANNELS 3 Zrotation Xrotation Yrotation
                JOINT lIndex2
                {
                  OFFSET 2.54057 -0.884171 1.56538
                  CHANNELS 3 Zrotation Xrotation Yrotation
                  End Site
                  {
                    OFFSET 1.62519 -0.234802 1.16502
                  }
                }
              }
              JOINT lMid1
              {
                OFFSET 8.24714 1.18213 3.41376
                CHANNELS 3 Zrotation Xrotation Yrotation
                JOINT lMid2
                {
                  OFFSET 3.10165 -0.590103 1.0647
                  CHANNELS 3 Zrotation Xrotation Yrotation
                  End Site
                  {
                    OFFSET 2.48547 -0.328903 0.83742
                  }
                }
              }
              JOINT lRing1
              {
                OFFSET 8.82822 0.546677 1.51678
                CHANNELS 3 Zrotation Xrotation Yrotation
                JOINT lRing2
                {
                  OFFSET 2.60934 -0.819778 -0.0198488
                  CHANNELS 3 Zrotation Xrotation Yrotation
                  End Site
                  {
                    OFFSET 2.33842 -0.294052 0.168128
                  }
                }
              }
              JOINT lPinky1
              {
                OFFSET 8.27202 -0.0477905 -0.4584
                CHANNELS 3 Zrotation Xrotation Yrotation
                JOINT lPinky2
                {
                  OFFSET 1.82734 -0.647385 -0.700984
                  CHANNELS 3 Zrotation Xrotation Yrotation
                  End Site
                  {
                    OFFSET 1.69225 -0.51767 -0.607171
                  }
                }
              }
            }
          }
        }
      }
    }
  }
  JOINT rButtock
  {
    OFFSET -8.77824 4.35084 1.2192
    CHANNELS 3 Zrotation Xrotation Yrotation
    JOINT rThigh
    {
      OFFSET 0 -1.70687 -2.19456
      CHANNELS 3 Zrotation Xrotation Yrotation
      JOINT rShin
      {
        OFFSET 0 -36.8199 0.73152
        CHANNELS 3 Zrotation Xrotation Yrotation
        JOINT rFoot
        {
          OFFSET 0.73152 -45.1104 -5.12064
          CHANNELS 3 Zrotation Xrotation Yrotation
          End Site
          {
            OFFSET -1.1221 -3.69964 12.103
          }
        }
      }
    }
  }
  JOINT lButtock
  {
    OFFSET 8.77824 4.35084 1.2192
    CHANNELS 3 Zrotation Xrotation Yrotation
    JOINT lThigh
    {
      OFFSET 0 -1.70687 -2.19456
      CHANNELS 3 Zrotation Xrotation Yrotation
      JOINT lShin
      {
        OFFSET 0 -36.8199 0.73152
        CHANNELS 3 Zrotation Xrotation Yrotation
        JOINT lFoot
        {
          OFFSET -0.73152 -45.1104 -5.12064
          CHANNELS 3 Zrotation Xrotation Yrotation
          End Site
          {
            OFFSET 1.1221 -3.69964 12.103
          }
        }
      }
    }
  }
}
MOTION
Frames:	4
Frame Time:	0.03333
-1.0502089047804475 64.0241026878357 -24.621079117059708 -32.458824157714844 75.44307708740234 -22.093124389648438 5.974419593811035 10.422406196594238 12.668927192687988 -0.10772788524627686 -7.215383052825928 3.5480332374572754 1.889021873474121 14.422365188598633 14.526686668395996 -5.709951877593994 -17.160419464111328 26.832109451293945 0.019170133396983147 0.6114446520805359 -0.06854495406150818 -0.6092648506164551 -0.48202812671661377 0.34998825192451477 -1.2285645008087158 0.14900098741054535 -0.6940852403640747 40.2681999206543 54.88701248168945 14.224812507629395 -28.264873504638672 -33.09006881713867 71.68041229248047 -1.3512927293777466 -25.188457489013672 -3.7759883403778076 -0.3341999650001526 0.17817151546478271 -0.3038220703601837 -0.10199349373579025 -0.9984989166259766 -0.9055618047714233 0.18809708952903748 -0.9981366991996765 0.9804966449737549 7.344418525695801 5.35355281829834 1.068118929862976 0.6698845624923706 -0.44721657037734985 -0.6586748957633972 3.438899517059326 0.27022629976272583 0.21381856501102448 -0.5211387872695923 -0.7010584473609924 0.46558302640914917 9.480090141296387 0.4659360647201538 0.16276110708713531 0.6381639838218689 0.16263511776924133 1.4309003353118896 1.2557414770126343 -0.3342514634132385 -0.28113892674446106 0.8421338200569153 0.8084884881973267 -0.6022806763648987 7.426488399505615 1.0491396188735962 -96.47221374511719 28.549304962158203 -29.637393951416016 -64.9818115234375 1.4337950944900513 -38.33369827270508 5.180340766906738 -0.3864177167415619 -0.5203892588615417 -0.05065449699759483 0.5456206202507019 -0.3797183632850647 0.4053519368171692 0.6651800274848938 0.6901049017906189 -0.430429071187973 -7.384946346282959 5.727453231811523 0.35722815990448 -0.15760888159275055 0.7953656911849976 0.08656924217939377 -2.230457305908203 0.6502667665481567 -0.5389092564582825 -0.27324119210243225 -0.4759678840637207 0.0949268490076065 -11.27149486541748 0.492821604013443 0.46179014444351196 -0.35077425837516785 -0.48025262355804443 -0.17776651680469513 -1.4274775981903076 0.15567584335803986 -0.29386335611343384 -0.40928778052330017 -0.15721264481544495 -0.09139072895050049 3.4343302249908447 -14.851104736328125 11.07055377960205 -1.2988673448562622 68.76312255859375 2.68263840675354 -8.09895133972168 -14.219339370727539 -17.250436782836914 -0.36192435026168823 0.19798970222473145 0.010282086208462715 17.33890151977539 -66.97737121582031 -4.250916957855225 2.657707452774048 54.3602294921875 -1.4318822622299194 0.4543755352497101 15.65876293182373 1.726026177406311
-1.6830942826345563 64.24826383590698 -24.57445953041315 -42.49507522583008 76.46186828613281 -23.491378784179688 5.646973133087158 10.860008239746094 12.492809295654297 -0.5231992602348328 -7.240919589996338 3.9004323482513428 1.7499885559082031 14.770435333251953 14.05942153930664 -5.296984672546387 -17.443267822265625 27.00904655456543 0.14592348039150238 0.6931326985359192 -0.3032759428024292 -0.6439037322998047 -0.44411182403564453 0.24588340520858765 -1.3018333911895752 0.01730433478951454 -0.8406593799591064 36.459651947021484 56.8900032043457 17.852197647094727 -28.30301856994629 -32.87123489379883 71.51284790039062 -1.308982253074646 -24.94833755493164 -4.30910587310791 -0.2599245011806488 -0.02906738966703415 -0.1468590646982193 0.12303432822227478 -0.6778230667114258 -1.2117043733596802 0.022784780710935593 -1.0901994705200195 1.0559022426605225 7.48289680480957 5.556734561920166 1.0009280443191528 0.49226370453834534 -0.355477511882782 -0.5860522985458374 3.5740184783935547 0.053012095391750336 0.23382161557674408 -0.3637780249118805 -0.5623162984848022 0.3209528625011444 9.534814834594727 0.35733363032341003 0.18719249963760376 0.44698283076286316 0.11558987200260162 1.4821220636367798 1.4592803716659546 -0.5540562272071838 -0.30176278948783875 1.018751859664917 0.6841046214103699 -0.38573652505874634 10.28770637512207 1.3326340913772583 -97.74555969238281 29.11053466796875 -33.785831451416016 -71.54987335205078 1.594508171081543 -40.374244689941406 5.80159330368042 -0.4732237160205841 -0.5338302254676819 -0.24229061603546143 0.3488755226135254 -0.5120975375175476 0.3858333230018616 0.41244399547576904 0.9508405327796936 -0.39623400568962097 -7.299322128295898 5.619105339050293 0.12581461668014526 -0.2606300115585327 0.3722783625125885 0.28119733929634094 -2.173124074935913 0.5723923444747925 -0.4585697650909424 -0.11007107049226761 -0.3255273997783661 0.11050489544868469 -11.160722732543945 0.4842439591884613 0.666580080986023 -0.4531004726886749 -0.4448816478252411 -0.17593026161193848 -1.5842971801757812 0.3369308114051819 -0.13976378738880157 -0.6574450731277466 -0.12173671275377274 0.17841754853725433 5.340535640716553 -14.980627059936523 12.68639087677002 -1.8198421001434326 69.15269470214844 3.2063214778900146 -7.736849308013916 -14.188417434692383 -16.241058349609375 -0.5532509088516235 0.0015960359014570713 0.40763285756111145 11.672849655151367 -66.7352523803711 -10.553311347961426 2.0718600749969482 51.780181884765625 -0.7789211273193359 0.6760833263397217 16.476558685302734 0.617164134979248
-2.290662587620318 64.4565999507904 -24.973372742533684 -56.16218566894531 74.89332580566406 -26.021827697753906 5.483752250671387 11.917311668395996 12.026592254638672 -0.9866563081741333 -7.464237689971924 3.9510490894317627 2.194667339324951 14.953445434570312 14.179790496826172 -5.076310634613037 -18.46453094482422 28.50523567199707 -0.023227553814649582 0.6626819372177124 -0.4325697422027588 -0.5657459497451782 -0.30374452471733093 0.05579429864883423 -1.0194497108459473 -0.11998695135116577 -0.7848345637321472 34.49919509887695 59.5750732421875 19.103153228759766 -28.537275314331055 -32.8970832824707 71.64857482910156 -1.3062738180160522 -26.273906707763672 -5.122654438018799 -0.04081309959292412 -0.28801730275154114 -0.10851002484560013 0.2005063146352768 -0.19168621301651 -1.2327238321304321 -0.2049632966518402 -0.9141305088996887 0.9730836749076843 7.600083351135254 5.6434173583984375 0.8713107705116272 0.0727996751666069 -0.2455470710992813 -0.5890175700187683 3.4872496128082275 0.1735915094614029 0.28062570095062256 -0.3566931188106537 -0.24436649680137634 0.16685132682323456 9.712896347045898 0.4241730868816376 0.3468162417411804 0.03874479979276657 0.137441948056221 1.4325934648513794 1.8393508195877075 -0.7695005536079407 -0.1621391624212265 0.912318229675293 0.37540996074676514 -0.11893469095230103 11.380629539489746 0.1250109076499939 -99.01294708251953 29.011329650878906 -36.17961502075195 -76.18572998046875 1.6961157321929932 -39.72412872314453 6.0882415771484375 -0.40967705845832825 -0.5997481942176819 -0.47414183616638184 0.14378942549228668 -0.6452359557151794 0.18866528570652008 0.19165202975273132 1.185173749923706 -0.5240562558174133 -6.9722490310668945 5.273112773895264 -0.26120278239250183 -0.27187225222587585 -0.04794934391975403 0.3790586292743683 -2.3083953857421875 0.6053466796875 -0.2924029231071472 0.027711976319551468 0.01611337997019291 0.22846634685993195 -10.871780395507812 0.5014283061027527 0.7699145078659058 -0.5622464418411255 -0.32682910561561584 -0.25463321805000305 -2.0003325939178467 0.39412984251976013 -0.04975640028715134 -0.7719729542732239 -0.07376272976398468 0.14276285469532013 6.926492214202881 -14.640602111816406 13.917953491210938 -2.3533709049224854 69.21199035644531 3.560532331466675 -8.228008270263672 -14.936965942382812 -16.995298385620117 -0.556020200252533 -0.0703483298420906 0.6914064288139343 7.504976272583008 -67.55914306640625 -15.728324890136719 1.2944623231887817 49.426177978515625 0.06832374632358551 0.6614000201225281 17.600605010986328 -0.9344089031219482
-3.031748835928738 65.08752107620239 -25.72451252490282 -64.79090881347656 72.66949462890625 -28.812549591064453 4.386795520782471 13.075603485107422 11.142549514770508 -1.1288034915924072 -8.127790451049805 3.498483419418335 2.5895915031433105 14.868581771850586 14.406993865966797 -5.002950191497803 -20.36162757873535 29.59921646118164 -0.41710165143013 0.5599910020828247 -0.5202975869178772 -0.3544587194919586 -0.008875446394085884 -0.048797715455293655 -0.5688486695289612 -0.21999160945415497 -0.553195595741272 30.950321197509766 60.75495910644531 22.32948112487793 -28.573116302490234 -32.35841369628906 71.37276458740234 -1.2788467407226562 -26.93060874938965 -5.800063133239746 0.2008625566959381 -0.34322524070739746 -0.14374573528766632 0.09239666908979416 0.40720489621162415 -1.0200724601745605 -0.34264320135116577 -0.3470894694328308 0.526985764503479 7.693253993988037 5.4463701248168945 0.6776123642921448 -0.4460902810096741 0.012830216437578201 -0.5159939527511597 3.266354560852051 0.5534906387329102 0.23865239322185516 -0.33762428164482117 0.2971818745136261 0.06585221737623215 9.909743309020996 0.5843504071235657 0.7262459993362427 -0.5892075896263123 0.31720227003097534 1.4198901653289795 2.1924960613250732 -0.8159733414649963 0.12143757194280624 0.6258217096328735 -0.07082699984312057 0.05454941838979721 12.140058517456055 -0.8064537644386292 -100.13565063476562 28.998870849609375 -37.965030670166016 -80.09416961669922 1.9138782024383545 -39.13064956665039 6.348124980926514 -0.21557393670082092 -0.5849035382270813 -0.5304257273674011 -0.14000938832759857 -0.5692167282104492 -0.006217897869646549 0.07523573189973831 1.3355451822280884 -0.6593335866928101 -6.529106616973877 4.777561664581299 -0.6891099810600281 -0.19296251237392426 -0.35630205273628235 0.20367087423801422 -2.513399124145508 0.6544459462165833 -0.16373798251152039 0.018370993435382843 0.14368559420108795 0.42633846402168274 -10.460012435913086 0.6139892339706421 0.5498172044754028 -0.7072141170501709 0.06956276297569275 -0.42199042439460754 -2.492551565170288 0.32854118943214417 -0.30918070673942566 -0.8856952786445618 -0.00982073787599802 -0.16228805482387543 7.815018177032471 -15.824339866638184 14.49935531616211 -2.6240711212158203 69.13829803466797 3.4818649291992188 -8.669803619384766 -15.264717102050781 -18.41606903076172 -0.3430807590484619 -0.11272972077131271 0.9315617680549622 2.762629747390747 -66.64126586914062 -21.920352935791016 0.5050733685493469 45.88054275512695 0.7568014860153198 0.2415202260017395 18.21297836303711 -1.4221190214157104
